<svg width="225" height="176" viewBox="0 0 225 176" fill="none" xmlns="http://www.w3.org/2000/svg">
<circle cx="144.5" cy="81.9375" r="34.5" fill="#F5B154"/>
<rect x="83.8624" y="37.2699" width="11.4254" height="19.0423" transform="rotate(-50 83.8624 37.2699)" fill="#FACF70"/>
<circle cx="87.0482" cy="32.4858" r="5.7127" transform="rotate(-50 87.0482 32.4858)" fill="#FACF70"/>
<circle cx="102.608" cy="45.5419" r="5.7127" transform="rotate(-50 102.608 45.5419)" fill="#FACF70"/>
<rect x="183.862" y="120.27" width="11.4254" height="19.0423" transform="rotate(-50 183.862 120.27)" fill="#FACF70"/>
<circle cx="187.048" cy="115.486" r="5.7127" transform="rotate(-50 187.048 115.486)" fill="#FACF70"/>
<circle cx="202.608" cy="128.542" r="5.7127" transform="rotate(-50 202.608 128.542)" fill="#FACF70"/>
<rect x="132.192" y="7.31908" width="11.4254" height="19.0423" transform="rotate(-5 132.192 7.31908)" fill="#FACF70"/>
<circle cx="137.828" cy="6.18886" r="5.7127" transform="rotate(-5 137.828 6.18886)" fill="#FACF70"/>
<circle cx="139.598" cy="26.4234" r="5.7127" transform="rotate(-5 139.598 26.4234)" fill="#FACF70"/>
<rect x="187.32" y="21.2999" width="11.4254" height="19.0423" transform="rotate(40 187.32 21.2999)" fill="#FACF70"/>
<circle cx="192.104" cy="24.4858" r="5.7127" transform="rotate(40 192.104 24.4858)" fill="#FACF70"/>
<circle cx="179.048" cy="40.0455" r="5.7127" transform="rotate(40 179.048 40.0455)" fill="#FACF70"/>
<rect x="199.319" y="80.0323" width="11.4254" height="19.0423" transform="rotate(-95 199.319 80.0323)" fill="#FACF70"/>
<circle cx="198.189" cy="74.3967" r="5.7127" transform="rotate(-95 198.189 74.3967)" fill="#FACF70"/>
<circle cx="218.423" cy="72.6264" r="5.7127" transform="rotate(-95 218.423 72.6264)" fill="#FACF70"/>
<path fill-rule="evenodd" clip-rule="evenodd" d="M78.5 57.4375C97.6721 57.4375 113.808 70.4383 118.572 88.1048C120.646 87.6675 122.796 87.4375 125 87.4375C142.121 87.4375 156 101.317 156 118.438C156 120.153 155.861 121.835 155.593 123.475C156.059 123.45 156.528 123.438 157 123.438C171.359 123.438 183 135.078 183 149.438C183 163.797 171.359 175.438 157 175.438H120H39V175.408C38.5024 175.428 38.0024 175.438 37.5 175.438C16.7893 175.438 0 158.648 0 137.938C0 117.385 16.5341 100.694 37.0267 100.44C37.009 99.9417 37 99.4406 37 98.9375C37 76.0177 55.5802 57.4375 78.5 57.4375Z" fill="#C8E3FC"/>
<path fill-rule="evenodd" clip-rule="evenodd" d="M73.3525 64.5694C91.2674 64.5694 106.345 76.7844 110.797 93.3832C112.735 92.9723 114.744 92.7562 116.803 92.7562C132.801 92.7562 145.77 105.797 145.77 121.883C145.77 123.494 145.64 125.075 145.39 126.616C145.825 126.592 146.264 126.58 146.705 126.58C160.123 126.58 171 137.517 171 151.009C171 164.5 160.123 175.438 146.705 175.438H112.131H36.4426V175.41C35.9777 175.428 35.5104 175.438 35.041 175.438C15.6884 175.438 0 159.663 0 140.204C0 120.894 15.4499 105.211 34.5987 104.973C34.5821 104.505 34.5738 104.034 34.5738 103.561C34.5738 82.0266 51.9356 64.5694 73.3525 64.5694Z" fill="#DBECFC"/>
</svg>
