<svg width="157" height="152" viewBox="0 0 157 152" fill="none" xmlns="http://www.w3.org/2000/svg">
<circle cx="37" cy="37" r="37" fill="#FFE269"/>
<path fill-rule="evenodd" clip-rule="evenodd" d="M69.7625 24.8078C76.2527 14.6982 87.5941 8 100.5 8C119.24 8 134.682 22.123 136.762 40.3061C147.675 42.1015 156 51.5785 156 63C156 75.3675 146.239 85.4551 134 85.9786V86H133H41C28.2975 86 18 75.7026 18 63C18 51.5533 26.3621 42.0596 37.3108 40.2943C39.0724 29.9086 48.1126 22 59 22C62.9095 22 66.5808 23.0198 69.7625 24.8078Z" fill="#F5FAFC"/>
<path fill-rule="evenodd" clip-rule="evenodd" d="M78 86H133H134V85.9787C146.239 85.4551 156 75.3675 156 63C156 51.5785 147.675 42.1015 136.762 40.3061C134.682 22.123 119.24 8 100.5 8C92.0115 8 84.1998 10.8977 78 15.7578V86Z" fill="#DBEEFF"/>
<rect y="97" width="9" height="9" fill="#F5FAFC"/>
<rect x="28" y="97" width="9" height="9" fill="#F5FAFC"/>
<rect x="9" y="119" width="9" height="9" fill="#F5FAFC"/>
<rect x="37" y="120" width="9" height="9" fill="#F5FAFC"/>
<rect x="56" y="96" width="9" height="9" fill="#F5FAFC"/>
<rect x="65" y="120" width="9" height="9" fill="#F5FAFC"/>
<rect x="83" y="97" width="9" height="9" fill="#DBEEFF"/>
<rect x="111" y="97" width="9" height="9" fill="#DBEEFF"/>
<rect x="92" y="120" width="9" height="9" fill="#DBEEFF"/>
<rect x="120" y="120" width="9" height="9" fill="#DBEEFF"/>
<rect x="83" y="143" width="9" height="9" fill="#DBEEFF"/>
<rect x="111" y="143" width="9" height="9" fill="#DBEEFF"/>
<rect x="139" y="143" width="9" height="9" fill="#DBEEFF"/>
<rect x="148" y="120" width="9" height="9" fill="#DBEEFF"/>
<rect x="139" y="97" width="9" height="9" fill="#DBEEFF"/>
<rect x="56" y="143" width="9" height="9" fill="#F5FAFC"/>
<rect y="143" width="9" height="9" fill="#F5FAFC"/>
<rect x="28" y="143" width="9" height="9" fill="#F5FAFC"/>
</svg>
