<svg width="161" height="142" viewBox="0 0 161 142" fill="none" xmlns="http://www.w3.org/2000/svg">
<path d="M52.2646 69.1609C15.7646 57.6609 34.7646 19.6609 54.2646 20.1609C78.2646 -16.8391 113.265 5.66092 118.765 20.1609C127.165 20.1609 134.265 26.8276 136.765 30.1609C173.765 32.1609 161.265 67.6609 144.265 69.1609H52.2646Z" fill="#C4E2FF"/>
<path d="M54.0663 20C60.4663 4.4 78.0663 0.166667 85.5663 0C81.5663 0.800001 71.5 6 66.5 14.5C74.5 17 89 26.5 91 34C95.5 34 106.5 41.5 108 43C113 44 135 44.5 136 69H129.5C129.833 62.3333 125.5 50 105.5 50C102 44.5 90.5 39.5 87 40C82.5 33 75 21.5 54.0663 20Z" fill="#B3DAFE"/>
<path d="M99.5663 24.5C101.066 18.5 111.733 15.6667 115.566 15L118.566 20C111.566 19.5 107.066 22.5 103.566 26.5C101.066 27 100.066 27 99.5663 24.5Z" fill="#B3DAFE"/>
<path d="M20.9814 89.1609C-15.5186 77.6609 3.48141 39.6609 22.9814 40.1609C46.9814 3.16092 81.9814 25.6609 87.4814 40.1609C95.8814 40.1609 102.981 46.8276 105.481 50.1609C142.481 52.1609 129.981 87.6609 112.981 89.1609H20.9814Z" fill="#EAF6FF"/>
<path d="M22.7831 40C29.1831 24.4 46.7831 20.1667 54.2831 20C50.2831 20.8 40.2831 28 34.2831 37C45.0831 41 52.2831 50.5 52.2831 63C50.2831 66.5 48.2831 64 47.2831 63C47.2831 51 41.7831 44 28.2831 41C7.28315 46 -4.71687 77 20.7831 89C-13.7168 80 0.283161 40 22.7831 40Z" fill="#D8ECFE"/>
<path d="M68 44.6928C69.5789 38.571 80.807 35.6802 84.8421 35L88 40.1015C80.6316 39.5913 75.8947 42.6522 72.2105 46.7334C69.5789 47.2436 68.5263 47.2436 68 44.6928Z" fill="#D8ECFE"/>
<path d="M93.2831 74C93.6831 81.6 100.783 87.1667 104.283 89H95.2831C91.7831 87.5 87.7831 79.5 87.7831 74C88.7831 68 93.2831 69.5 93.2831 74Z" fill="#D8ECFE"/>
<rect x="77.2281" y="129" width="19" height="6" transform="rotate(-90 77.2281 129)" fill="#EAF6FF"/>
<circle cx="80.2281" cy="110" r="3" fill="#EAF6FF"/>
<circle cx="80.2281" cy="129" r="3" fill="#EAF6FF"/>
<rect x="87.0526" y="126.713" width="19" height="6" transform="rotate(-150 87.0526 126.713)" fill="#EAF6FF"/>
<circle cx="72.0981" cy="114.615" r="3" transform="rotate(-60 72.0981 114.615)" fill="#EAF6FF"/>
<circle cx="88.5525" cy="124.115" r="3" transform="rotate(-60 88.5525 124.115)" fill="#EAF6FF"/>
<rect x="70.8262" y="121" width="19" height="6" transform="rotate(-30 70.8262 121)" fill="#EAF6FF"/>
<circle cx="88.7807" cy="114.098" r="3" transform="rotate(60 88.7807 114.098)" fill="#EAF6FF"/>
<circle cx="72.3262" cy="123.598" r="3" transform="rotate(60 72.3262 123.598)" fill="#EAF6FF"/>
<rect x="117.228" y="129" width="19" height="6" transform="rotate(-90 117.228 129)" fill="#EAF6FF"/>
<circle cx="120.228" cy="110" r="3" fill="#EAF6FF"/>
<circle cx="120.228" cy="129" r="3" fill="#EAF6FF"/>
<rect x="127.053" y="126.713" width="19" height="6" transform="rotate(-150 127.053 126.713)" fill="#EAF6FF"/>
<circle cx="112.098" cy="114.615" r="3" transform="rotate(-60 112.098 114.615)" fill="#EAF6FF"/>
<circle cx="128.553" cy="124.115" r="3" transform="rotate(-60 128.553 124.115)" fill="#EAF6FF"/>
<rect x="110.826" y="121" width="19" height="6" transform="rotate(-30 110.826 121)" fill="#EAF6FF"/>
<circle cx="128.781" cy="114.098" r="3" transform="rotate(60 128.781 114.098)" fill="#EAF6FF"/>
<circle cx="112.326" cy="123.598" r="3" transform="rotate(60 112.326 123.598)" fill="#EAF6FF"/>
<rect x="36.2281" y="129" width="19" height="6" transform="rotate(-90 36.2281 129)" fill="#EAF6FF"/>
<circle cx="39.2281" cy="110" r="3" fill="#EAF6FF"/>
<circle cx="39.2281" cy="129" r="3" fill="#EAF6FF"/>
<rect x="46.0526" y="126.713" width="19" height="6" transform="rotate(-150 46.0526 126.713)" fill="#EAF6FF"/>
<circle cx="31.0981" cy="114.615" r="3" transform="rotate(-60 31.0981 114.615)" fill="#EAF6FF"/>
<circle cx="47.5525" cy="124.115" r="3" transform="rotate(-60 47.5525 124.115)" fill="#EAF6FF"/>
<rect x="29.8262" y="121" width="19" height="6" transform="rotate(-30 29.8262 121)" fill="#EAF6FF"/>
<circle cx="47.7807" cy="114.098" r="3" transform="rotate(60 47.7807 114.098)" fill="#EAF6FF"/>
<circle cx="31.3262" cy="123.598" r="3" transform="rotate(60 31.3262 123.598)" fill="#EAF6FF"/>
<circle cx="9.5" cy="109.5" r="2.5" fill="#C4E2FF"/>
<circle cx="19.5" cy="119.5" r="2.5" fill="#C4E2FF"/>
<circle cx="9.5" cy="129.5" r="2.5" fill="#C4E2FF"/>
<circle cx="19.5" cy="139.5" r="2.5" fill="#C4E2FF"/>
<circle cx="39.5" cy="139.5" r="2.5" fill="#C4E2FF"/>
<circle cx="59.5" cy="129.5" r="2.5" fill="#C4E2FF"/>
<circle cx="59.5" cy="109.5" r="2.5" fill="#C4E2FF"/>
<circle cx="79.5" cy="139.5" r="2.5" fill="#C4E2FF"/>
<circle cx="99.5" cy="129.5" r="2.5" fill="#C4E2FF"/>
<circle cx="99.5" cy="109.5" r="2.5" fill="#C4E2FF"/>
<circle cx="119.5" cy="139.5" r="2.5" fill="#C4E2FF"/>
<circle cx="139.5" cy="139.5" r="2.5" fill="#C4E2FF"/>
<circle cx="149.5" cy="129.5" r="2.5" fill="#C4E2FF"/>
<circle cx="139.5" cy="119.5" r="2.5" fill="#C4E2FF"/>
<circle cx="149.5" cy="109.5" r="2.5" fill="#C4E2FF"/>
</svg>
